<?xml version="1.0" encoding="utf-8"?>
<svg viewBox="0 0 500 500" width="512px" height="512px" xmlns="http://www.w3.org/2000/svg">
  <rect x="-6" y="-6" width="512" height="512" rx="15" ry="15" style="fill: rgb(255, 255, 255); stroke: rgba(0, 0, 0, 0);"/>
  <g transform="matrix(1.640447, 0, 0, 1.640447, 5.000053, 86.292404)">
    <rect height="199.589" opacity="0" width="298.699" x="0" y="0"/>
    <path d="M61.2056 197.652L224.117 197.652C266.112 197.652 298.699 165.916 298.699 125.094C298.699 83.7402 264.968 53.0429 220.078 53.2023C203.544 20.1562 172.982 2.84217e-14 135.781 2.84217e-14C86.9276 2.84217e-14 46.1303 38.2285 42.01 87.3006C17.1553 94.3431 0 115.654 0 142.028C0 174.684 24.2853 197.652 61.2056 197.652Z" fill="#5e5ce6"/>
  </g>
  <g transform="matrix(1, 0, 0, 1, 149.187759, 125.681252)">
    <rect height="256.957" opacity="0" width="152.401" x="0" y="0"/>
    <path d="M152.401 62.6167L152.401 15.6556C152.401 9.12095 147.116 4.79261 140.635 6.14719L76.515 20.097C68.5233 21.8761 64.222 26.0987 64.222 33.1362L64.357 172.227C65.0193 178.32 62.0647 182.285 56.6099 183.323L36.7261 187.471C11.7734 192.758 0 205.432 0 224.486C0 243.618 14.7203 256.957 35.4476 256.957C53.866 256.957 81.2898 243.432 81.2898 207.022L81.2898 92.7055C81.2898 86.0285 82.5955 84.7473 88.5561 83.5227L145.656 70.8489C149.719 69.9458 152.401 66.8127 152.401 62.6167Z" fill="#ffffff"/>
  </g>
</svg>